<svg width="82" height="46" viewBox="0 0 82 46" fill="none" xmlns="http://www.w3.org/2000/svg">
<path fill-rule="evenodd" clip-rule="evenodd" d="M20.8285 0L21.4856 0.40743L30.9143 6.254L40.3429 0.40743L41 0L41.6571 0.40743L51.0857 6.25399L60.5144 0.40743L61.1715 0L61.8285 0.40743L71.2572 6.25399L80.6859 0.40743L82 3.00583L71.9143 9.25983L71.2572 9.66726L70.6001 9.25983L61.1715 3.41326L51.7428 9.25983L51.0857 9.66726L50.4287 9.25983L41 3.41326L31.5713 9.25983L30.9143 9.66726L30.2572 9.25983L20.8285 3.41326L11.3998 9.25983L10.7428 9.66726L10.0857 9.25983L0 3.00583L1.31411 0.40743L10.7428 6.254L20.1715 0.40743L20.8285 0ZM20.8285 18.1664L21.4856 18.5738L30.9143 24.4204L40.3429 18.5738L41 18.1664L41.6571 18.5738L51.0857 24.4204L60.5144 18.5738L61.1715 18.1664L61.8285 18.5738L71.2572 24.4204L80.6859 18.5738L82 21.1722L71.9143 27.4262L71.2572 27.8336L70.6001 27.4262L61.1715 21.5796L51.7428 27.4262L51.0857 27.8336L50.4287 27.4262L41 21.5796L31.5713 27.4262L30.9143 27.8336L30.2572 27.4262L20.8285 21.5796L11.3998 27.4262L10.7428 27.8336L10.0857 27.4262L0 21.1722L1.31411 18.5738L10.7428 24.4204L20.1715 18.5738L20.8285 18.1664ZM21.4856 36.7402L20.8285 36.3327L20.1715 36.7402L10.7428 42.5867L1.31411 36.7402L0 39.3386L10.0857 45.5926L10.7428 46L11.3998 45.5926L20.8285 39.746L30.2572 45.5926L30.9143 46L31.5713 45.5926L41 39.746L50.4287 45.5926L51.0857 46L51.7428 45.5926L61.1715 39.746L70.6001 45.5926L71.2572 46L71.9143 45.5926L82 39.3386L80.6859 36.7402L71.2572 42.5867L61.8285 36.7402L61.1715 36.3327L60.5144 36.7402L51.0857 42.5867L41.6571 36.7402L41 36.3327L40.3429 36.7402L30.9143 42.5867L21.4856 36.7402Z" fill="#FF984E"/>
</svg>
