<svg width="162" height="56" viewBox="0 0 162 56" fill="none" xmlns="http://www.w3.org/2000/svg">
<rect width="162" height="56" rx="8" fill="#031024"/>
<path d="M34.4097 17.785C34.9768 17.1314 35.4092 16.3723 35.6821 15.5511C35.9549 14.73 36.0629 13.863 35.9997 13C34.2588 13.1405 32.6427 13.9593 31.4997 15.28C30.9524 15.913 30.5376 16.6493 30.28 17.4455C30.0223 18.2416 29.927 19.0814 29.9997 19.915C30.849 19.9221 31.6884 19.7336 32.4531 19.3643C33.2179 18.9949 33.8873 18.4546 34.4097 17.785ZM38.1897 28.945C38.1998 27.7956 38.5026 26.6677 39.0694 25.6678C39.6363 24.6679 40.4487 23.8289 41.4297 23.23C40.8106 22.3379 39.9921 21.6023 39.0391 21.0815C38.0862 20.5608 37.025 20.2692 35.9397 20.23C33.5997 19.99 31.4397 21.595 30.1947 21.595C28.9497 21.595 27.1947 20.26 25.2447 20.29C23.9699 20.332 22.7278 20.7037 21.6394 21.3688C20.5511 22.0339 19.6537 22.9697 19.0347 24.085C16.3947 28.675 18.3597 35.5 20.9997 39.205C22.1997 41.02 23.6997 43.075 25.6797 43C27.6597 42.925 28.3047 41.77 30.5997 41.77C32.8947 41.77 33.5997 43 35.5497 42.955C37.4997 42.91 38.8797 41.095 40.1397 39.28C41.0323 37.9623 41.7295 36.5224 42.2097 35.005C41.021 34.498 40.0067 33.6539 39.2923 32.577C38.5779 31.5 38.1946 30.2374 38.1897 28.945Z" fill="white"/>
<path d="M52.996 21V13.152H55.096C56.296 13.152 57.232 13.476 57.904 14.124C58.576 14.772 58.912 15.744 58.912 17.04C58.912 17.688 58.824 18.26 58.648 18.756C58.48 19.252 58.232 19.668 57.904 20.004C57.584 20.332 57.192 20.58 56.728 20.748C56.272 20.916 55.752 21 55.168 21H52.996ZM54.388 19.872H55C55.8 19.872 56.412 19.644 56.836 19.188C57.268 18.724 57.484 18.008 57.484 17.04C57.484 16.08 57.268 15.38 56.836 14.94C56.404 14.5 55.792 14.28 55 14.28H54.388V19.872ZM62.968 21.144C62.6 21.144 62.248 21.076 61.912 20.94C61.576 20.804 61.276 20.604 61.012 20.34C60.756 20.076 60.552 19.752 60.4 19.368C60.248 18.984 60.172 18.548 60.172 18.06C60.172 17.572 60.248 17.136 60.4 16.752C60.552 16.368 60.756 16.044 61.012 15.78C61.276 15.516 61.576 15.316 61.912 15.18C62.248 15.036 62.6 14.964 62.968 14.964C63.336 14.964 63.688 15.036 64.024 15.18C64.368 15.316 64.668 15.516 64.924 15.78C65.18 16.044 65.384 16.368 65.536 16.752C65.696 17.136 65.776 17.572 65.776 18.06C65.776 18.548 65.696 18.984 65.536 19.368C65.384 19.752 65.18 20.076 64.924 20.34C64.668 20.604 64.368 20.804 64.024 20.94C63.688 21.076 63.336 21.144 62.968 21.144ZM62.968 20.016C63.4 20.016 63.74 19.84 63.988 19.488C64.236 19.128 64.36 18.652 64.36 18.06C64.36 17.46 64.236 16.984 63.988 16.632C63.74 16.272 63.4 16.092 62.968 16.092C62.536 16.092 62.196 16.272 61.948 16.632C61.708 16.984 61.588 17.46 61.588 18.06C61.588 18.652 61.708 19.128 61.948 19.488C62.196 19.84 62.536 20.016 62.968 20.016ZM68.2236 21L66.6636 15.108H68.0556L68.7636 18.168C68.8276 18.448 68.8796 18.728 68.9196 19.008C68.9676 19.288 69.0196 19.572 69.0756 19.86H69.1236C69.1796 19.572 69.2356 19.288 69.2916 19.008C69.3556 18.728 69.4236 18.448 69.4956 18.168L70.2636 15.108H71.5236L72.3036 18.168C72.3756 18.448 72.4436 18.728 72.5076 19.008C72.5716 19.288 72.6356 19.572 72.6996 19.86H72.7476C72.8036 19.572 72.8556 19.288 72.9036 19.008C72.9516 18.728 73.0036 18.448 73.0596 18.168L73.7676 15.108H75.0636L73.5636 21H71.9196L71.2356 18.252C71.1716 17.972 71.1116 17.696 71.0556 17.424C70.9996 17.144 70.9396 16.848 70.8756 16.536H70.8276C70.7716 16.848 70.7156 17.144 70.6596 17.424C70.6036 17.704 70.5436 17.984 70.4796 18.264L69.8076 21H68.2236ZM76.4082 21V15.108H77.5482L77.6442 15.9H77.6922C77.9562 15.644 78.2402 15.424 78.5442 15.24C78.8562 15.056 79.2162 14.964 79.6242 14.964C80.2562 14.964 80.7162 15.168 81.0042 15.576C81.2922 15.976 81.4362 16.552 81.4362 17.304V21H80.0562V17.484C80.0562 16.996 79.9842 16.652 79.8402 16.452C79.6962 16.252 79.4602 16.152 79.1322 16.152C78.8762 16.152 78.6482 16.216 78.4482 16.344C78.2562 16.464 78.0362 16.644 77.7882 16.884V21H76.4082ZM84.647 21.144C84.151 21.144 83.803 20.996 83.603 20.7C83.403 20.404 83.303 20 83.303 19.488V12.528H84.683V19.56C84.683 19.728 84.715 19.848 84.779 19.92C84.843 19.984 84.911 20.016 84.983 20.016C85.015 20.016 85.043 20.016 85.067 20.016C85.099 20.016 85.143 20.008 85.199 19.992L85.379 21.024C85.195 21.104 84.951 21.144 84.647 21.144ZM89.1528 21.144C88.7848 21.144 88.4328 21.076 88.0968 20.94C87.7608 20.804 87.4608 20.604 87.1968 20.34C86.9408 20.076 86.7368 19.752 86.5848 19.368C86.4328 18.984 86.3568 18.548 86.3568 18.06C86.3568 17.572 86.4328 17.136 86.5848 16.752C86.7368 16.368 86.9408 16.044 87.1968 15.78C87.4608 15.516 87.7608 15.316 88.0968 15.18C88.4328 15.036 88.7848 14.964 89.1528 14.964C89.5208 14.964 89.8728 15.036 90.2088 15.18C90.5528 15.316 90.8528 15.516 91.1088 15.78C91.3648 16.044 91.5688 16.368 91.7208 16.752C91.8808 17.136 91.9608 17.572 91.9608 18.06C91.9608 18.548 91.8808 18.984 91.7208 19.368C91.5688 19.752 91.3648 20.076 91.1088 20.34C90.8528 20.604 90.5528 20.804 90.2088 20.94C89.8728 21.076 89.5208 21.144 89.1528 21.144ZM89.1528 20.016C89.5848 20.016 89.9248 19.84 90.1728 19.488C90.4208 19.128 90.5448 18.652 90.5448 18.06C90.5448 17.46 90.4208 16.984 90.1728 16.632C89.9248 16.272 89.5848 16.092 89.1528 16.092C88.7208 16.092 88.3808 16.272 88.1328 16.632C87.8928 16.984 87.7728 17.46 87.7728 18.06C87.7728 18.652 87.8928 19.128 88.1328 19.488C88.3808 19.84 88.7208 20.016 89.1528 20.016ZM94.7942 21.144C94.2742 21.144 93.8542 20.988 93.5342 20.676C93.2142 20.356 93.0542 19.936 93.0542 19.416C93.0542 19.104 93.1182 18.828 93.2462 18.588C93.3822 18.34 93.5902 18.128 93.8702 17.952C94.1582 17.776 94.5182 17.628 94.9502 17.508C95.3902 17.388 95.9142 17.296 96.5222 17.232C96.5142 17.08 96.4902 16.936 96.4502 16.8C96.4182 16.656 96.3582 16.532 96.2702 16.428C96.1902 16.316 96.0822 16.232 95.9462 16.176C95.8102 16.112 95.6422 16.08 95.4422 16.08C95.1542 16.08 94.8702 16.136 94.5902 16.248C94.3182 16.36 94.0502 16.496 93.7862 16.656L93.2822 15.732C93.6102 15.524 93.9782 15.344 94.3862 15.192C94.7942 15.04 95.2342 14.964 95.7062 14.964C96.4422 14.964 96.9902 15.184 97.3502 15.624C97.7182 16.056 97.9022 16.684 97.9022 17.508V21H96.7622L96.6662 20.352H96.6182C96.3542 20.576 96.0702 20.764 95.7662 20.916C95.4702 21.068 95.1462 21.144 94.7942 21.144ZM95.2382 20.064C95.4782 20.064 95.6942 20.008 95.8862 19.896C96.0862 19.784 96.2982 19.624 96.5222 19.416V18.096C96.1222 18.144 95.7862 18.208 95.5142 18.288C95.2422 18.368 95.0222 18.46 94.8542 18.564C94.6862 18.66 94.5662 18.772 94.4942 18.9C94.4222 19.028 94.3862 19.164 94.3862 19.308C94.3862 19.572 94.4662 19.764 94.6262 19.884C94.7862 20.004 94.9902 20.064 95.2382 20.064ZM101.798 21.144C101.054 21.144 100.462 20.876 100.022 20.34C99.5897 19.796 99.3737 19.036 99.3737 18.06C99.3737 17.58 99.4417 17.148 99.5777 16.764C99.7217 16.38 99.9097 16.056 100.142 15.792C100.374 15.528 100.638 15.324 100.934 15.18C101.238 15.036 101.55 14.964 101.87 14.964C102.206 14.964 102.49 15.024 102.722 15.144C102.954 15.256 103.186 15.412 103.418 15.612L103.37 14.664V12.528H104.75V21H103.61L103.514 20.364H103.466C103.25 20.58 102.998 20.764 102.71 20.916C102.422 21.068 102.118 21.144 101.798 21.144ZM102.134 20.004C102.574 20.004 102.986 19.784 103.37 19.344V16.596C103.162 16.412 102.958 16.284 102.758 16.212C102.566 16.14 102.37 16.104 102.17 16.104C101.786 16.104 101.462 16.272 101.198 16.608C100.934 16.944 100.802 17.424 100.802 18.048C100.802 18.688 100.914 19.176 101.138 19.512C101.37 19.84 101.702 20.004 102.134 20.004ZM111.681 21.144C111.313 21.144 110.961 21.076 110.625 20.94C110.289 20.804 109.989 20.604 109.725 20.34C109.469 20.076 109.265 19.752 109.113 19.368C108.961 18.984 108.885 18.548 108.885 18.06C108.885 17.572 108.961 17.136 109.113 16.752C109.265 16.368 109.469 16.044 109.725 15.78C109.989 15.516 110.289 15.316 110.625 15.18C110.961 15.036 111.313 14.964 111.681 14.964C112.049 14.964 112.401 15.036 112.737 15.18C113.081 15.316 113.381 15.516 113.637 15.78C113.893 16.044 114.097 16.368 114.249 16.752C114.409 17.136 114.489 17.572 114.489 18.06C114.489 18.548 114.409 18.984 114.249 19.368C114.097 19.752 113.893 20.076 113.637 20.34C113.381 20.604 113.081 20.804 112.737 20.94C112.401 21.076 112.049 21.144 111.681 21.144ZM111.681 20.016C112.113 20.016 112.453 19.84 112.701 19.488C112.949 19.128 113.073 18.652 113.073 18.06C113.073 17.46 112.949 16.984 112.701 16.632C112.453 16.272 112.113 16.092 111.681 16.092C111.249 16.092 110.909 16.272 110.661 16.632C110.421 16.984 110.301 17.46 110.301 18.06C110.301 18.652 110.421 19.128 110.661 19.488C110.909 19.84 111.249 20.016 111.681 20.016ZM116.035 21V15.108H117.175L117.271 15.9H117.319C117.583 15.644 117.867 15.424 118.171 15.24C118.483 15.056 118.843 14.964 119.251 14.964C119.883 14.964 120.343 15.168 120.631 15.576C120.919 15.976 121.063 16.552 121.063 17.304V21H119.683V17.484C119.683 16.996 119.611 16.652 119.467 16.452C119.323 16.252 119.087 16.152 118.759 16.152C118.503 16.152 118.275 16.216 118.075 16.344C117.883 16.464 117.663 16.644 117.415 16.884V21H116.035ZM127.589 21.144C127.245 21.144 126.953 21.092 126.713 20.988C126.481 20.884 126.289 20.74 126.137 20.556C125.993 20.364 125.885 20.14 125.813 19.884C125.749 19.62 125.717 19.328 125.717 19.008V16.2H124.877V15.168L125.789 15.108L125.957 13.5H127.109V15.108H128.609V16.2H127.109V19.008C127.109 19.696 127.385 20.04 127.937 20.04C128.041 20.04 128.145 20.028 128.249 20.004C128.361 19.98 128.461 19.948 128.549 19.908L128.789 20.928C128.629 20.984 128.445 21.032 128.237 21.072C128.037 21.12 127.821 21.144 127.589 21.144ZM130.028 21V12.528H131.408V14.712L131.36 15.852C131.608 15.62 131.88 15.416 132.176 15.24C132.48 15.056 132.836 14.964 133.244 14.964C133.876 14.964 134.336 15.168 134.624 15.576C134.912 15.976 135.056 16.552 135.056 17.304V21H133.676V17.484C133.676 16.996 133.604 16.652 133.46 16.452C133.316 16.252 133.08 16.152 132.752 16.152C132.496 16.152 132.268 16.216 132.068 16.344C131.876 16.464 131.656 16.644 131.408 16.884V21H130.028ZM139.42 21.144C139.012 21.144 138.632 21.076 138.28 20.94C137.928 20.796 137.62 20.592 137.356 20.328C137.092 20.064 136.884 19.744 136.732 19.368C136.588 18.984 136.516 18.548 136.516 18.06C136.516 17.58 136.592 17.148 136.744 16.764C136.896 16.38 137.096 16.056 137.344 15.792C137.6 15.528 137.892 15.324 138.22 15.18C138.548 15.036 138.884 14.964 139.228 14.964C139.628 14.964 139.98 15.032 140.284 15.168C140.588 15.304 140.84 15.496 141.04 15.744C141.248 15.992 141.404 16.288 141.508 16.632C141.612 16.976 141.664 17.352 141.664 17.76C141.664 17.896 141.656 18.024 141.64 18.144C141.632 18.264 141.62 18.36 141.604 18.432H137.86C137.924 18.96 138.108 19.368 138.412 19.656C138.724 19.936 139.12 20.076 139.6 20.076C139.856 20.076 140.092 20.04 140.308 19.968C140.532 19.888 140.752 19.78 140.968 19.644L141.436 20.508C141.156 20.692 140.844 20.844 140.5 20.964C140.156 21.084 139.796 21.144 139.42 21.144ZM137.848 17.496H140.464C140.464 17.04 140.364 16.684 140.164 16.428C139.972 16.164 139.672 16.032 139.264 16.032C138.912 16.032 138.604 16.156 138.34 16.404C138.076 16.652 137.912 17.016 137.848 17.496Z" fill="white"/>
<path d="M55.038 37.128L54.716 38.248H57.054L56.732 37.128C56.5827 36.6427 56.438 36.1433 56.298 35.63C56.1673 35.1167 56.0367 34.608 55.906 34.104H55.85C55.7193 34.6173 55.5887 35.1307 55.458 35.644C55.3273 36.148 55.1873 36.6427 55.038 37.128ZM51.972 42L54.954 32.844H56.858L59.84 42H58.132L57.418 39.522H54.338L53.624 42H51.972ZM61.0386 44.716V35.126H62.3686L62.4806 35.854H62.5366C62.826 35.6113 63.148 35.4013 63.5026 35.224C63.8573 35.0467 64.226 34.958 64.6086 34.958C65.038 34.958 65.416 35.042 65.7426 35.21C66.0786 35.3687 66.3633 35.602 66.5966 35.91C66.83 36.218 67.0073 36.5867 67.1286 37.016C67.25 37.4453 67.3106 37.926 67.3106 38.458C67.3106 39.046 67.2266 39.5733 67.0586 40.04C66.9 40.4973 66.6853 40.8847 66.4146 41.202C66.144 41.51 65.8313 41.748 65.4766 41.916C65.122 42.084 64.7533 42.168 64.3706 42.168C64.072 42.168 63.7733 42.1027 63.4746 41.972C63.176 41.8413 62.8866 41.6547 62.6066 41.412L62.6486 42.56V44.716H61.0386ZM64.0346 40.838C64.492 40.838 64.8746 40.642 65.1826 40.25C65.4906 39.8487 65.6446 39.256 65.6446 38.472C65.6446 37.7813 65.528 37.2447 65.2946 36.862C65.0613 36.4793 64.6833 36.288 64.1606 36.288C63.6753 36.288 63.1713 36.5447 62.6486 37.058V40.264C62.9006 40.4787 63.1433 40.628 63.3766 40.712C63.61 40.796 63.8293 40.838 64.0346 40.838ZM69.151 44.716V35.126H70.481L70.593 35.854H70.649C70.9383 35.6113 71.2603 35.4013 71.615 35.224C71.9697 35.0467 72.3383 34.958 72.721 34.958C73.1503 34.958 73.5283 35.042 73.855 35.21C74.191 35.3687 74.4757 35.602 74.709 35.91C74.9423 36.218 75.1197 36.5867 75.241 37.016C75.3623 37.4453 75.423 37.926 75.423 38.458C75.423 39.046 75.339 39.5733 75.171 40.04C75.0123 40.4973 74.7977 40.8847 74.527 41.202C74.2563 41.51 73.9437 41.748 73.589 41.916C73.2343 42.084 72.8657 42.168 72.483 42.168C72.1843 42.168 71.8857 42.1027 71.587 41.972C71.2883 41.8413 70.999 41.6547 70.719 41.412L70.761 42.56V44.716H69.151ZM72.147 40.838C72.6043 40.838 72.987 40.642 73.295 40.25C73.603 39.8487 73.757 39.256 73.757 38.472C73.757 37.7813 73.6403 37.2447 73.407 36.862C73.1737 36.4793 72.7957 36.288 72.273 36.288C71.7877 36.288 71.2837 36.5447 70.761 37.058V40.264C71.013 40.4787 71.2557 40.628 71.489 40.712C71.7223 40.796 71.9417 40.838 72.147 40.838ZM83.0901 42.168C82.4741 42.168 81.8767 42.0513 81.2981 41.818C80.7287 41.5847 80.2247 41.2533 79.7861 40.824L80.7381 39.718C81.0647 40.026 81.4381 40.278 81.8581 40.474C82.2781 40.6607 82.6981 40.754 83.1181 40.754C83.6407 40.754 84.0374 40.6467 84.3081 40.432C84.5787 40.2173 84.7141 39.9327 84.7141 39.578C84.7141 39.3913 84.6767 39.2327 84.6021 39.102C84.5367 38.9713 84.4387 38.8593 84.3081 38.766C84.1867 38.6633 84.0374 38.57 83.8601 38.486C83.6921 38.402 83.5054 38.318 83.3001 38.234L82.0401 37.688C81.8161 37.5947 81.5921 37.478 81.3681 37.338C81.1534 37.198 80.9574 37.03 80.7801 36.834C80.6027 36.638 80.4581 36.4093 80.3461 36.148C80.2434 35.8867 80.1921 35.588 80.1921 35.252C80.1921 34.888 80.2667 34.552 80.4161 34.244C80.5747 33.9267 80.7894 33.6513 81.0601 33.418C81.3307 33.1847 81.6527 33.0027 82.0261 32.872C82.4087 32.7413 82.8241 32.676 83.2721 32.676C83.8041 32.676 84.3174 32.7833 84.8121 32.998C85.3067 33.2033 85.7314 33.4833 86.0861 33.838L85.2601 34.874C84.9614 34.6313 84.6534 34.44 84.3361 34.3C84.0187 34.16 83.6641 34.09 83.2721 34.09C82.8334 34.09 82.4834 34.188 82.2221 34.384C81.9607 34.5707 81.8301 34.832 81.8301 35.168C81.8301 35.3453 81.8674 35.4993 81.9421 35.63C82.0261 35.7513 82.1334 35.8633 82.2641 35.966C82.4041 36.0593 82.5627 36.148 82.7401 36.232C82.9174 36.3067 83.0994 36.3813 83.2861 36.456L84.5321 36.974C84.8027 37.086 85.0501 37.2167 85.2741 37.366C85.4981 37.5153 85.6894 37.688 85.8481 37.884C86.0161 38.08 86.1467 38.3087 86.2401 38.57C86.3334 38.822 86.3801 39.116 86.3801 39.452C86.3801 39.8253 86.3054 40.1753 86.1561 40.502C86.0067 40.8287 85.7874 41.118 85.4981 41.37C85.2181 41.6127 84.8727 41.8087 84.4621 41.958C84.0607 42.098 83.6034 42.168 83.0901 42.168ZM90.1678 42.168C89.7665 42.168 89.4258 42.1073 89.1458 41.986C88.8752 41.8647 88.6512 41.6967 88.4738 41.482C88.3058 41.258 88.1798 40.9967 88.0958 40.698C88.0212 40.39 87.9838 40.0493 87.9838 39.676V36.4H87.0038V35.196L88.0678 35.126L88.2638 33.25H89.6078V35.126H91.3578V36.4H89.6078V39.676C89.6078 40.4787 89.9298 40.88 90.5738 40.88C90.6952 40.88 90.8165 40.866 90.9378 40.838C91.0685 40.81 91.1852 40.7727 91.2878 40.726L91.5678 41.916C91.3812 41.9813 91.1665 42.0373 90.9238 42.084C90.6905 42.14 90.4385 42.168 90.1678 42.168ZM95.6097 42.168C95.1803 42.168 94.7697 42.0887 94.3777 41.93C93.9857 41.7713 93.6357 41.538 93.3277 41.23C93.029 40.922 92.791 40.544 92.6137 40.096C92.4363 39.648 92.3477 39.1393 92.3477 38.57C92.3477 38.0007 92.4363 37.492 92.6137 37.044C92.791 36.596 93.029 36.218 93.3277 35.91C93.6357 35.602 93.9857 35.3687 94.3777 35.21C94.7697 35.042 95.1803 34.958 95.6097 34.958C96.039 34.958 96.4497 35.042 96.8417 35.21C97.243 35.3687 97.593 35.602 97.8917 35.91C98.1903 36.218 98.4283 36.596 98.6057 37.044C98.7923 37.492 98.8857 38.0007 98.8857 38.57C98.8857 39.1393 98.7923 39.648 98.6057 40.096C98.4283 40.544 98.1903 40.922 97.8917 41.23C97.593 41.538 97.243 41.7713 96.8417 41.93C96.4497 42.0887 96.039 42.168 95.6097 42.168ZM95.6097 40.852C96.1137 40.852 96.5103 40.6467 96.7997 40.236C97.089 39.816 97.2337 39.2607 97.2337 38.57C97.2337 37.87 97.089 37.3147 96.7997 36.904C96.5103 36.484 96.1137 36.274 95.6097 36.274C95.1057 36.274 94.709 36.484 94.4197 36.904C94.1397 37.3147 93.9997 37.87 93.9997 38.57C93.9997 39.2607 94.1397 39.816 94.4197 40.236C94.709 40.6467 95.1057 40.852 95.6097 40.852ZM100.689 42V35.126H102.019L102.131 36.344H102.187C102.43 35.896 102.724 35.5553 103.069 35.322C103.415 35.0793 103.769 34.958 104.133 34.958C104.46 34.958 104.721 35.0047 104.917 35.098L104.637 36.498C104.516 36.4607 104.404 36.4327 104.301 36.414C104.199 36.3953 104.073 36.386 103.923 36.386C103.653 36.386 103.368 36.4933 103.069 36.708C102.771 36.9133 102.514 37.2773 102.299 37.8V42H100.689ZM108.925 42.168C108.449 42.168 108.006 42.0887 107.595 41.93C107.185 41.762 106.825 41.524 106.517 41.216C106.209 40.908 105.967 40.5347 105.789 40.096C105.621 39.648 105.537 39.1393 105.537 38.57C105.537 38.01 105.626 37.506 105.803 37.058C105.981 36.61 106.214 36.232 106.503 35.924C106.802 35.616 107.143 35.378 107.525 35.21C107.908 35.042 108.3 34.958 108.701 34.958C109.168 34.958 109.579 35.0373 109.933 35.196C110.288 35.3547 110.582 35.5787 110.815 35.868C111.058 36.1573 111.24 36.5027 111.361 36.904C111.483 37.3053 111.543 37.744 111.543 38.22C111.543 38.3787 111.534 38.528 111.515 38.668C111.506 38.808 111.492 38.92 111.473 39.004H107.105C107.18 39.62 107.395 40.096 107.749 40.432C108.113 40.7587 108.575 40.922 109.135 40.922C109.434 40.922 109.709 40.88 109.961 40.796C110.223 40.7027 110.479 40.5767 110.731 40.418L111.277 41.426C110.951 41.6407 110.587 41.818 110.185 41.958C109.784 42.098 109.364 42.168 108.925 42.168ZM107.091 37.912H110.143C110.143 37.38 110.027 36.9647 109.793 36.666C109.569 36.358 109.219 36.204 108.743 36.204C108.333 36.204 107.973 36.3487 107.665 36.638C107.357 36.9273 107.166 37.352 107.091 37.912Z" fill="white"/>
</svg>
