<svg width="35" height="33" viewBox="0 0 35 33" fill="none" xmlns="http://www.w3.org/2000/svg">
<path d="M33.3914 11.7848H25.542L20.0242 1.23156C19.8263 0.853193 19.4919 0.573897 19.0822 0.445063C18.6726 0.31623 18.237 0.353388 17.8555 0.549622C17.7229 0.617836 17.6042 0.702187 17.5 0.798677C17.3957 0.702255 17.277 0.617836 17.1444 0.549622C16.763 0.353388 16.3273 0.316298 15.9177 0.445063C15.5081 0.573829 15.1736 0.853193 14.9758 1.23156L9.15961 12.3554C8.96178 12.7338 8.92432 13.1659 9.0542 13.5722C9.0985 13.7109 9.1618 13.8401 9.23945 13.959H1.60863C1.287 13.959 1.02539 13.6995 1.02539 13.3805C1.02539 13.0615 1.28707 12.8019 1.60863 12.8019H7.4537C7.73685 12.8019 7.9664 12.5743 7.9664 12.2934C7.9664 12.0125 7.73685 11.7848 7.4537 11.7848H1.60863C0.72167 11.7848 0 12.5007 0 13.3805C0 14.1101 0.496426 14.7265 1.17175 14.9158L4.14121 30.6246C4.33228 31.6358 5.22375 32.3697 6.2609 32.3697H28.7392C29.7763 32.3697 30.6677 31.6358 30.8589 30.6246L33.8283 14.9157C34.5036 14.7265 35 14.1101 35 13.3805C35 12.5006 34.2783 11.7848 33.3914 11.7848ZM18.3276 1.45261C18.4659 1.38148 18.6239 1.36798 18.7724 1.4147C18.9209 1.46135 19.0422 1.56266 19.1139 1.69983L24.93 12.8238C25.0018 12.9609 25.0154 13.1176 24.9683 13.2649C24.9212 13.4123 24.8191 13.5325 24.6807 13.6037C24.5425 13.6749 24.3845 13.6883 24.236 13.6417C24.0875 13.595 23.9662 13.4937 23.8945 13.3565L18.0784 2.23252C17.9303 1.94936 18.0422 1.59948 18.3276 1.45261ZM25.1548 14.9762L24.6697 19.9381H18.0127V14.9762H25.1548ZM17.5 3.33547L22.9843 13.8247C23.0085 13.871 23.0349 13.9158 23.0632 13.959H11.9368C11.9651 13.9158 11.9915 13.871 12.0157 13.8247L12.5504 12.802H20.354C20.6371 12.802 20.8667 12.5744 20.8667 12.2934C20.8667 12.0126 20.6371 11.7849 20.354 11.7849H13.0822L17.5 3.33547ZM10.0699 12.8237L15.8861 1.69976C15.9578 1.56259 16.0791 1.46129 16.2276 1.41463C16.2857 1.39633 16.3453 1.38731 16.4045 1.38731C16.4968 1.38731 16.5882 1.40928 16.6724 1.45254C16.9578 1.59948 17.0697 1.94929 16.9216 2.23245L11.1054 13.3564C11.0337 13.4936 10.9124 13.5949 10.7639 13.6415C10.6155 13.6882 10.4575 13.6747 10.3191 13.6035C10.1808 13.5324 10.0787 13.4121 10.0317 13.2648C9.98457 13.1176 9.99817 12.9609 10.0699 12.8237ZM2.2264 14.9762H8.81501L9.30016 19.9381H3.16436L2.2264 14.9762ZM3.35665 20.9552H9.39962L9.88477 25.9171H4.29454L3.35665 20.9552ZM6.26083 31.3526C5.71683 31.3526 5.24925 30.9677 5.14903 30.4373L4.48684 26.9342H9.98416L10.4162 31.3526H6.26083V31.3526ZM16.9873 31.3526H11.4463L11.0143 26.9342H16.9873V31.3526ZM16.9873 25.9171H10.9149L10.4297 20.9552H16.9873V25.9171ZM16.9873 19.9381H10.3303L9.84519 14.9762H16.9873V19.9381ZM23.5537 31.3526H18.0127V26.9342H23.9857L23.5537 31.3526ZM24.0851 25.9171H18.0127V20.9552H24.5703L24.0851 25.9171ZM29.851 30.4373C29.7508 30.9677 29.2831 31.3526 28.7391 31.3526H24.5838L25.0158 26.9342H30.5132L29.851 30.4373ZM30.7055 25.9171H25.1153L25.6004 20.9552H31.6434L30.7055 25.9171ZM31.8356 19.9381H25.6999L26.1851 14.9761H32.7736L31.8356 19.9381ZM33.3914 13.9591H33.383C33.3827 13.9591 33.3824 13.9591 33.3821 13.9591H25.7605C25.8382 13.8402 25.9014 13.7109 25.9458 13.5723C26.0267 13.3192 26.0426 13.0559 25.9953 12.802H33.3914C33.713 12.802 33.9746 13.0616 33.9746 13.3805C33.9746 13.6995 33.7129 13.9591 33.3914 13.9591Z" fill="#393939"/>
</svg>
