<svg width="18" height="30" viewBox="0 0 18 30" fill="none" xmlns="http://www.w3.org/2000/svg">
<path d="M9 30C4.03682 30 0 25.795 0 20.625V7.5C0 6.80878 0.537671 6.25008 1.19993 6.25008C1.8624 6.25008 2.40007 6.80878 2.40007 7.5V20.625C2.40007 24.4151 5.36045 27.4999 9 27.4999C12.6396 27.4999 15.5999 24.4151 15.5999 20.625V6.87492C15.5999 4.46251 13.716 2.50008 11.4001 2.50008C9.08394 2.50008 7.2 4.46251 7.2 6.87492V19.3751C7.2 20.4087 8.00749 21.2501 9 21.2501C9.9925 21.2501 10.8 20.4087 10.8 19.3751V7.5C10.8 6.80878 11.3377 6.25008 11.9999 6.25008C12.6624 6.25008 13.2001 6.80878 13.2001 7.5V19.3751C13.2001 21.7875 11.3159 23.7499 9 23.7499C6.68408 23.7499 4.79993 21.7875 4.79993 19.3751V6.87492C4.79993 3.0851 7.7603 0 11.4001 0C15.0396 0 18 3.0851 18 6.87492V20.625C18 25.795 13.9632 30 9 30Z" fill="#5A5A5A"/>
</svg>
