<svg width="37" height="36" viewBox="0 0 37 36" fill="none" xmlns="http://www.w3.org/2000/svg">
<path d="M22 30.4543C28.5992 30.4543 31.8997 30.4543 33.949 28.2968C36 26.1411 36 22.6692 36 15.7272C36 8.78515 36 5.31322 33.949 3.15753C31.8997 1 28.5992 1 22 1H15C8.40075 1 5.10025 1 3.051 3.15753C1 5.31322 1 8.78515 1 15.7272C1 22.6692 1 26.1411 3.051 28.2968C4.19375 29.5007 5.725 30.0328 8 30.2666" stroke="black" stroke-width="2" stroke-linecap="round" stroke-linejoin="round"/>
<path d="M22 30.4544C19.837 30.4544 17.4535 31.3748 15.2782 32.5622C11.7817 34.4712 10.0335 35.4267 9.17249 34.8173C8.31149 34.2098 8.47424 32.3229 8.80149 28.5509L8.87499 27.6931M18.5 15.7272V15.7456V15.7272ZM11.5 15.7272V15.7456V15.7272ZM25.5 15.7272V15.7456V15.7272Z" stroke="black" stroke-width="2" stroke-linecap="round"/>
</svg>
