<svg width="16" height="20" viewBox="0 0 16 20" fill="none" xmlns="http://www.w3.org/2000/svg">
<path d="M4.83333 1.8H4.66667C4.75833 1.8 4.83333 1.71 4.83333 1.6V1.8H11.1667V1.6C11.1667 1.71 11.2417 1.8 11.3333 1.8H11.1667V3.6H12.6667V1.6C12.6667 0.7175 12.0688 0 11.3333 0H4.66667C3.93125 0 3.33333 0.7175 3.33333 1.6V3.6H4.83333V1.8ZM15.3333 3.6H0.666667C0.297917 3.6 0 3.9575 0 4.4V5.2C0 5.31 0.075 5.4 0.166667 5.4H1.425L1.93958 18.475C1.97292 19.3275 2.56042 20 3.27083 20H12.7292C13.4417 20 14.0271 19.33 14.0604 18.475L14.575 5.4H15.8333C15.925 5.4 16 5.31 16 5.2V4.4C16 3.9575 15.7021 3.6 15.3333 3.6ZM12.5688 18.2H3.43125L2.92708 5.4H13.0729L12.5688 18.2Z" fill="black"/>
</svg>
