<svg width="16" height="21" viewBox="0 0 16 21" fill="none" xmlns="http://www.w3.org/2000/svg">
<path d="M15.045 5.5033C15.423 5.11757 15.631 4.6053 15.631 4.06037C15.631 3.51545 15.423 3.00317 15.045 2.61744L13.459 0.998991C13.081 0.613257 12.579 0.401001 12.045 0.401001C11.511 0.401001 11.009 0.613257 10.632 0.99797L0 11.8138V16.3192H4.413L15.045 5.5033ZM12.045 2.44192L13.632 4.05935L12.042 5.67576L10.456 4.05833L12.045 2.44192ZM2 14.2782V12.6608L9.04 5.49922L10.626 7.11767L3.587 14.2782H2ZM0 18.3601H16V20.401H0V18.3601Z" fill="black"/>
</svg>
