<svg width="162" height="52" viewBox="0 0 162 52" fill="none" xmlns="http://www.w3.org/2000/svg">
<rect width="162" height="52" rx="8" fill="#031024"/>
<path d="M21.37 12.4901L35.4929 20.6988L31.4751 24.7419L18.8132 12.1225C19.0567 12.1225 19.422 12 19.6655 12C20.2742 12 20.883 12.1225 21.37 12.4901ZM16.5 35.7686V15.1855C16.5 14.2053 16.987 13.3477 17.7175 12.7351L30.5011 25.5995L17.8392 38.3415C16.987 37.7289 16.5 36.7487 16.5 35.7686ZM21.37 38.5865C20.6395 38.9541 19.7872 39.0766 19.0567 38.9541L31.4751 26.5797L35.3711 30.5003L21.37 38.5865ZM39.0236 28.295L36.4668 29.7652L32.2056 25.5995L36.4668 21.3114L38.9018 22.7816C39.8758 23.3942 40.4846 24.3744 40.4846 25.5995C40.6063 26.5797 39.9976 27.6824 39.0236 28.295Z" fill="white"/>
<path d="M54.784 19.144C54.08 19.144 53.448 18.988 52.888 18.676C52.328 18.364 51.888 17.908 51.568 17.308C51.248 16.7 51.088 15.964 51.088 15.1C51.088 14.244 51.252 13.512 51.58 12.904C51.908 12.288 52.352 11.82 52.912 11.5C53.472 11.172 54.1 11.008 54.796 11.008C55.356 11.008 55.828 11.112 56.212 11.32C56.604 11.52 56.924 11.748 57.172 12.004L56.428 12.904C56.228 12.712 56.004 12.552 55.756 12.424C55.516 12.288 55.212 12.22 54.844 12.22C54.148 12.22 53.584 12.476 53.152 12.988C52.728 13.492 52.516 14.184 52.516 15.064C52.516 15.96 52.72 16.664 53.128 17.176C53.536 17.68 54.132 17.932 54.916 17.932C55.14 17.932 55.352 17.904 55.552 17.848C55.752 17.784 55.916 17.696 56.044 17.584V15.892H54.556V14.752H57.292V18.208C57.028 18.472 56.676 18.696 56.236 18.88C55.804 19.056 55.32 19.144 54.784 19.144ZM59.2112 19V11.152H63.9392V12.328H60.6032V14.332H63.4232V15.508H60.6032V17.824H64.0592V19H59.2112ZM67.4322 19V12.328H65.1642V11.152H71.0922V12.328H68.8242V19H67.4322ZM75.1613 19V11.152H76.5533V19H75.1613ZM80.312 19V12.328H78.044V11.152H83.972V12.328H81.704V19H80.312ZM91.0892 19.144C90.4092 19.144 89.8092 18.98 89.2892 18.652C88.7692 18.316 88.3612 17.844 88.0652 17.236C87.7772 16.62 87.6332 15.888 87.6332 15.04C87.6332 14.192 87.7772 13.468 88.0652 12.868C88.3612 12.268 88.7692 11.808 89.2892 11.488C89.8092 11.168 90.4092 11.008 91.0892 11.008C91.7772 11.008 92.3812 11.168 92.9012 11.488C93.4212 11.808 93.8252 12.268 94.1132 12.868C94.4092 13.468 94.5572 14.192 94.5572 15.04C94.5572 15.888 94.4092 16.62 94.1132 17.236C93.8252 17.844 93.4212 18.316 92.9012 18.652C92.3812 18.98 91.7772 19.144 91.0892 19.144ZM91.0892 17.932C91.7052 17.932 92.1972 17.672 92.5652 17.152C92.9332 16.624 93.1172 15.92 93.1172 15.04C93.1172 14.16 92.9332 13.472 92.5652 12.976C92.1972 12.472 91.7052 12.22 91.0892 12.22C90.4732 12.22 89.9812 12.472 89.6132 12.976C89.2452 13.472 89.0612 14.16 89.0612 15.04C89.0612 15.92 89.2452 16.624 89.6132 17.152C89.9812 17.672 90.4732 17.932 91.0892 17.932ZM96.3071 19V11.152H97.7351L100.183 15.568L100.987 17.236H101.035C101.003 16.836 100.963 16.4 100.915 15.928C100.875 15.456 100.855 15 100.855 14.56V11.152H102.187V19H100.759L98.3111 14.584L97.5071 12.916H97.4591C97.4911 13.332 97.5271 13.768 97.5671 14.224C97.6151 14.68 97.6391 15.128 97.6391 15.568V19H96.3071Z" fill="white"/>
<path d="M55.498 40.168C54.882 40.168 54.308 40.0653 53.776 39.86C53.2533 39.6547 52.796 39.3513 52.404 38.95C52.0213 38.5487 51.7227 38.054 51.508 37.466C51.2933 36.878 51.186 36.206 51.186 35.45C51.186 34.7033 51.298 34.036 51.522 33.448C51.746 32.8507 52.0493 32.3467 52.432 31.936C52.824 31.5253 53.2813 31.2127 53.804 30.998C54.336 30.7833 54.9053 30.676 55.512 30.676C56.1653 30.676 56.716 30.7973 57.164 31.04C57.6213 31.2733 57.9947 31.5393 58.284 31.838L57.416 32.888C57.1827 32.664 56.9213 32.4773 56.632 32.328C56.352 32.1693 55.9973 32.09 55.568 32.09C55.1573 32.09 54.784 32.1693 54.448 32.328C54.1213 32.4773 53.8367 32.6967 53.594 32.986C53.3607 33.266 53.1787 33.6113 53.048 34.022C52.9173 34.4327 52.852 34.8947 52.852 35.408C52.852 36.4533 53.0853 37.2747 53.552 37.872C54.028 38.46 54.728 38.754 55.652 38.754C55.9133 38.754 56.1607 38.7213 56.394 38.656C56.6273 38.5813 56.8187 38.4787 56.968 38.348V36.374H55.232V35.044H58.424V39.076C58.116 39.384 57.7053 39.6453 57.192 39.86C56.688 40.0653 56.1233 40.168 55.498 40.168ZM63.337 40.168C62.9077 40.168 62.497 40.0887 62.105 39.93C61.713 39.7713 61.363 39.538 61.055 39.23C60.7563 38.922 60.5183 38.544 60.341 38.096C60.1637 37.648 60.075 37.1393 60.075 36.57C60.075 36.0007 60.1637 35.492 60.341 35.044C60.5183 34.596 60.7563 34.218 61.055 33.91C61.363 33.602 61.713 33.3687 62.105 33.21C62.497 33.042 62.9077 32.958 63.337 32.958C63.7663 32.958 64.177 33.042 64.569 33.21C64.9703 33.3687 65.3203 33.602 65.619 33.91C65.9177 34.218 66.1557 34.596 66.333 35.044C66.5197 35.492 66.613 36.0007 66.613 36.57C66.613 37.1393 66.5197 37.648 66.333 38.096C66.1557 38.544 65.9177 38.922 65.619 39.23C65.3203 39.538 64.9703 39.7713 64.569 39.93C64.177 40.0887 63.7663 40.168 63.337 40.168ZM63.337 38.852C63.841 38.852 64.2377 38.6467 64.527 38.236C64.8163 37.816 64.961 37.2607 64.961 36.57C64.961 35.87 64.8163 35.3147 64.527 34.904C64.2377 34.484 63.841 34.274 63.337 34.274C62.833 34.274 62.4363 34.484 62.147 34.904C61.867 35.3147 61.727 35.87 61.727 36.57C61.727 37.2607 61.867 37.816 62.147 38.236C62.4363 38.6467 62.833 38.852 63.337 38.852ZM71.2306 40.168C70.8013 40.168 70.3906 40.0887 69.9986 39.93C69.6066 39.7713 69.2566 39.538 68.9486 39.23C68.6499 38.922 68.4119 38.544 68.2346 38.096C68.0573 37.648 67.9686 37.1393 67.9686 36.57C67.9686 36.0007 68.0573 35.492 68.2346 35.044C68.4119 34.596 68.6499 34.218 68.9486 33.91C69.2566 33.602 69.6066 33.3687 69.9986 33.21C70.3906 33.042 70.8013 32.958 71.2306 32.958C71.6599 32.958 72.0706 33.042 72.4626 33.21C72.8639 33.3687 73.2139 33.602 73.5126 33.91C73.8113 34.218 74.0493 34.596 74.2266 35.044C74.4133 35.492 74.5066 36.0007 74.5066 36.57C74.5066 37.1393 74.4133 37.648 74.2266 38.096C74.0493 38.544 73.8113 38.922 73.5126 39.23C73.2139 39.538 72.8639 39.7713 72.4626 39.93C72.0706 40.0887 71.6599 40.168 71.2306 40.168ZM71.2306 38.852C71.7346 38.852 72.1313 38.6467 72.4206 38.236C72.7099 37.816 72.8546 37.2607 72.8546 36.57C72.8546 35.87 72.7099 35.3147 72.4206 34.904C72.1313 34.484 71.7346 34.274 71.2306 34.274C70.7266 34.274 70.3299 34.484 70.0406 34.904C69.7606 35.3147 69.6206 35.87 69.6206 36.57C69.6206 37.2607 69.7606 37.816 70.0406 38.236C70.3299 38.6467 70.7266 38.852 71.2306 38.852ZM78.7042 43.038C78.2935 43.038 77.9109 43.0007 77.5562 42.926C77.2109 42.8513 76.9122 42.7393 76.6602 42.59C76.4082 42.4407 76.2075 42.254 76.0582 42.03C75.9182 41.806 75.8482 41.5447 75.8482 41.246C75.8482 40.9567 75.9322 40.686 76.1002 40.434C76.2682 40.1913 76.5109 39.972 76.8282 39.776V39.72C76.6509 39.608 76.5015 39.4587 76.3802 39.272C76.2682 39.0853 76.2122 38.852 76.2122 38.572C76.2122 38.3013 76.2869 38.0587 76.4362 37.844C76.5949 37.62 76.7722 37.438 76.9682 37.298V37.242C76.7349 37.0647 76.5249 36.822 76.3382 36.514C76.1609 36.1967 76.0722 35.8327 76.0722 35.422C76.0722 35.03 76.1469 34.68 76.2962 34.372C76.4455 34.064 76.6415 33.8073 76.8842 33.602C77.1362 33.3873 77.4255 33.2287 77.7522 33.126C78.0789 33.014 78.4242 32.958 78.7882 32.958C78.9749 32.958 79.1522 32.9767 79.3202 33.014C79.4975 33.042 79.6562 33.0793 79.7962 33.126H82.2602V34.316H81.0002C81.1122 34.4467 81.2055 34.6147 81.2802 34.82C81.3549 35.016 81.3922 35.2353 81.3922 35.478C81.3922 35.8607 81.3222 36.1967 81.1822 36.486C81.0515 36.7753 80.8695 37.018 80.6362 37.214C80.4029 37.41 80.1275 37.5593 79.8102 37.662C79.4929 37.7647 79.1522 37.816 78.7882 37.816C78.6389 37.816 78.4849 37.802 78.3262 37.774C78.1675 37.746 78.0089 37.6993 77.8502 37.634C77.7475 37.7273 77.6635 37.8207 77.5982 37.914C77.5422 38.0073 77.5142 38.1333 77.5142 38.292C77.5142 38.488 77.5935 38.642 77.7522 38.754C77.9202 38.866 78.2142 38.922 78.6342 38.922H79.8522C80.6829 38.922 81.3082 39.0573 81.7282 39.328C82.1575 39.5893 82.3722 40.0187 82.3722 40.616C82.3722 40.952 82.2835 41.2693 82.1062 41.568C81.9382 41.8667 81.6955 42.1233 81.3782 42.338C81.0609 42.5527 80.6735 42.7207 80.2162 42.842C79.7682 42.9727 79.2642 43.038 78.7042 43.038ZM78.7882 36.808C79.1149 36.808 79.3949 36.6913 79.6282 36.458C79.8615 36.2153 79.9782 35.87 79.9782 35.422C79.9782 34.9927 79.8615 34.6613 79.6282 34.428C79.4042 34.1853 79.1242 34.064 78.7882 34.064C78.4522 34.064 78.1675 34.1807 77.9342 34.414C77.7009 34.6473 77.5842 34.9833 77.5842 35.422C77.5842 35.87 77.7009 36.2153 77.9342 36.458C78.1675 36.6913 78.4522 36.808 78.7882 36.808ZM78.9562 41.988C79.5162 41.988 79.9642 41.876 80.3002 41.652C80.6455 41.4373 80.8182 41.1807 80.8182 40.882C80.8182 40.6113 80.7109 40.4293 80.4962 40.336C80.2909 40.2427 79.9922 40.196 79.6002 40.196H78.6622C78.2889 40.196 77.9762 40.1633 77.7242 40.098C77.3695 40.3687 77.1922 40.672 77.1922 41.008C77.1922 41.316 77.3462 41.554 77.6542 41.722C77.9715 41.8993 78.4055 41.988 78.9562 41.988ZM85.3616 40.168C84.783 40.168 84.377 39.9953 84.1436 39.65C83.9103 39.3047 83.7936 38.8333 83.7936 38.236V30.116H85.4036V38.32C85.4036 38.516 85.441 38.656 85.5156 38.74C85.5903 38.8147 85.6696 38.852 85.7536 38.852C85.791 38.852 85.8236 38.852 85.8516 38.852C85.889 38.852 85.9403 38.8427 86.0056 38.824L86.2156 40.028C86.001 40.1213 85.7163 40.168 85.3616 40.168ZM90.7444 40.168C90.2684 40.168 89.8251 40.0887 89.4144 39.93C89.0038 39.762 88.6444 39.524 88.3364 39.216C88.0284 38.908 87.7858 38.5347 87.6084 38.096C87.4404 37.648 87.3564 37.1393 87.3564 36.57C87.3564 36.01 87.4451 35.506 87.6224 35.058C87.7998 34.61 88.0331 34.232 88.3224 33.924C88.6211 33.616 88.9618 33.378 89.3444 33.21C89.7271 33.042 90.1191 32.958 90.5204 32.958C90.9871 32.958 91.3978 33.0373 91.7524 33.196C92.1071 33.3547 92.4011 33.5787 92.6344 33.868C92.8771 34.1573 93.0591 34.5027 93.1804 34.904C93.3018 35.3053 93.3624 35.744 93.3624 36.22C93.3624 36.3787 93.3531 36.528 93.3344 36.668C93.3251 36.808 93.3111 36.92 93.2924 37.004H88.9244C88.9991 37.62 89.2138 38.096 89.5684 38.432C89.9324 38.7587 90.3944 38.922 90.9544 38.922C91.2531 38.922 91.5284 38.88 91.7804 38.796C92.0418 38.7027 92.2984 38.5767 92.5504 38.418L93.0964 39.426C92.7698 39.6407 92.4058 39.818 92.0044 39.958C91.6031 40.098 91.1831 40.168 90.7444 40.168ZM88.9104 35.912H91.9624C91.9624 35.38 91.8458 34.9647 91.6124 34.666C91.3884 34.358 91.0384 34.204 90.5624 34.204C90.1518 34.204 89.7924 34.3487 89.4844 34.638C89.1764 34.9273 88.9851 35.352 88.9104 35.912ZM98.2629 40V30.844H101.147C101.651 30.844 102.118 30.8907 102.547 30.984C102.986 31.0773 103.364 31.236 103.681 31.46C103.998 31.684 104.246 31.978 104.423 32.342C104.6 32.6967 104.689 33.14 104.689 33.672C104.689 34.176 104.6 34.6147 104.423 34.988C104.246 35.3613 103.998 35.674 103.681 35.926C103.373 36.1687 103.004 36.3507 102.575 36.472C102.155 36.584 101.698 36.64 101.203 36.64H99.8869V40H98.2629ZM99.8869 35.338H101.077C102.421 35.338 103.093 34.7827 103.093 33.672C103.093 33.0933 102.916 32.6967 102.561 32.482C102.216 32.258 101.702 32.146 101.021 32.146H99.8869V35.338ZM108.049 40.168C107.471 40.168 107.065 39.9953 106.831 39.65C106.598 39.3047 106.481 38.8333 106.481 38.236V30.116H108.091V38.32C108.091 38.516 108.129 38.656 108.203 38.74C108.278 38.8147 108.357 38.852 108.441 38.852C108.479 38.852 108.511 38.852 108.539 38.852C108.577 38.852 108.628 38.8427 108.693 38.824L108.903 40.028C108.689 40.1213 108.404 40.168 108.049 40.168ZM112.158 40.168C111.551 40.168 111.061 39.986 110.688 39.622C110.315 39.2487 110.128 38.7587 110.128 38.152C110.128 37.788 110.203 37.466 110.352 37.186C110.511 36.8967 110.753 36.6493 111.08 36.444C111.416 36.2387 111.836 36.066 112.34 35.926C112.853 35.786 113.465 35.6787 114.174 35.604C114.165 35.4267 114.137 35.2587 114.09 35.1C114.053 34.932 113.983 34.7873 113.88 34.666C113.787 34.5353 113.661 34.4373 113.502 34.372C113.343 34.2973 113.147 34.26 112.914 34.26C112.578 34.26 112.247 34.3253 111.92 34.456C111.603 34.5867 111.29 34.7453 110.982 34.932L110.394 33.854C110.777 33.6113 111.206 33.4013 111.682 33.224C112.158 33.0467 112.671 32.958 113.222 32.958C114.081 32.958 114.72 33.2147 115.14 33.728C115.569 34.232 115.784 34.9647 115.784 35.926V40H114.454L114.342 39.244H114.286C113.978 39.5053 113.647 39.7247 113.292 39.902C112.947 40.0793 112.569 40.168 112.158 40.168ZM112.676 38.908C112.956 38.908 113.208 38.8427 113.432 38.712C113.665 38.5813 113.913 38.3947 114.174 38.152V36.612C113.707 36.668 113.315 36.7427 112.998 36.836C112.681 36.9293 112.424 37.0367 112.228 37.158C112.032 37.27 111.892 37.4007 111.808 37.55C111.724 37.6993 111.682 37.858 111.682 38.026C111.682 38.334 111.775 38.558 111.962 38.698C112.149 38.838 112.387 38.908 112.676 38.908ZM118.383 42.828C118.196 42.828 118.033 42.814 117.893 42.786C117.753 42.7673 117.617 42.7347 117.487 42.688L117.781 41.428C117.846 41.4467 117.921 41.4653 118.005 41.484C118.098 41.512 118.187 41.526 118.271 41.526C118.635 41.526 118.924 41.414 119.139 41.19C119.363 40.9753 119.531 40.6953 119.643 40.35L119.769 39.916L117.067 33.126H118.705L119.895 36.5C119.997 36.7987 120.095 37.116 120.189 37.452C120.291 37.7787 120.394 38.1053 120.497 38.432H120.553C120.637 38.1147 120.721 37.7927 120.805 37.466C120.898 37.13 120.987 36.808 121.071 36.5L122.107 33.126H123.661L121.169 40.308C121.029 40.7 120.875 41.05 120.707 41.358C120.539 41.666 120.343 41.9273 120.119 42.142C119.904 42.366 119.652 42.534 119.363 42.646C119.083 42.7673 118.756 42.828 118.383 42.828Z" fill="white"/>
</svg>
