<svg width="102" height="48" viewBox="0 0 102 48" fill="none" xmlns="http://www.w3.org/2000/svg">
<path d="M34.4847 23.489C34.674 23.5297 34.816 23.6312 34.9106 23.7937C35.0053 23.9427 35.0324 24.112 34.9918 24.3015C34.9513 24.4911 34.8498 24.6401 34.6875 24.7485C34.5252 24.8432 34.3495 24.8703 34.1601 24.8297C32.1181 24.3692 29.6433 24.3625 26.7358 24.8094C25.9514 26.0687 25.0859 27.2401 24.1393 28.3235C23.1927 29.4203 22.273 30.3885 21.3805 31.2281C17.5534 34.8166 13.5572 37.5317 9.39204 39.3735C8.58064 39.739 7.7016 40.0573 6.75492 40.3281C5.82183 40.6125 4.92253 40.7547 4.05703 40.7547C3.23211 40.7547 2.50184 40.5719 1.86624 40.2062C0.62209 39.3937 0.277243 38.2698 0.831703 36.8344C1.25093 35.9 1.9271 34.9927 2.86021 34.1125C3.80685 33.2458 4.75349 32.4942 5.70012 31.8578C8.21544 30.111 11.1703 28.4995 14.5647 27.0235C18.1755 25.4797 21.651 24.376 24.9912 23.7125C25.2887 23.6448 25.5863 23.5839 25.8838 23.5297C26.7628 21.9995 27.3511 20.537 27.6486 19.1422C28.0543 17.0974 27.4863 15.4927 25.9447 14.3281C24.6869 13.4615 23.2467 12.9807 21.6239 12.886C20.0146 12.7776 18.6285 12.9875 17.4654 13.5156C17.3708 13.5562 17.2762 13.6036 17.1815 13.6578C17.0057 13.739 16.8299 13.7526 16.654 13.6985C16.4918 13.6307 16.3633 13.5156 16.2687 13.3531C16.1875 13.1771 16.174 13.001 16.2281 12.825C16.2822 12.649 16.3904 12.5135 16.5526 12.4187C16.6609 12.3646 16.7622 12.3172 16.857 12.2765C18.8043 11.2474 20.7043 9.78487 22.557 7.88902C24.5044 5.85777 25.5863 4.15834 25.8026 2.79061C25.8297 2.45209 25.7959 2.19476 25.7013 2.01874C25.6201 1.84272 25.5254 1.71402 25.4172 1.63277C25.3496 1.57862 25.2144 1.57186 25.0115 1.61249C24.146 1.80209 22.841 2.6755 21.0965 4.23277C19.352 5.7901 17.364 7.86198 15.1327 10.4485C13.0365 12.8724 11.1027 15.2964 9.33115 17.7203C7.57314 20.1307 6.22077 22.2026 5.27414 23.936C5.17948 24.0985 5.04424 24.2067 4.86844 24.261C4.70615 24.3151 4.53711 24.3015 4.36131 24.2203C4.18551 24.1255 4.07055 23.9969 4.01646 23.8344C3.96237 23.6583 3.96913 23.4823 4.03675 23.3062C4.53711 22.2635 5.17271 20.9635 5.94354 19.4062C7.40404 16.4812 8.83756 13.5156 10.244 10.5094C10.9607 8.92499 11.4611 7.7401 11.7451 6.95471C12.0426 6.16925 12.2184 5.64788 12.2725 5.39061C12.1778 5.32288 12.0967 5.23487 12.029 5.12652C11.9479 4.9505 11.9344 4.77448 11.9885 4.59846C12.0426 4.42237 12.1508 4.28698 12.3131 4.19221C12.5159 4.09737 12.6917 4.05675 12.8404 4.07027C13.0027 4.07027 13.1312 4.09737 13.2259 4.15152C13.3205 4.20573 13.3882 4.25311 13.4287 4.29374C13.6316 4.48334 13.7195 4.76772 13.6925 5.14686C13.6789 5.52601 13.5437 6.07448 13.2868 6.79221C12.9622 7.69948 12.4416 8.95209 11.7248 10.55C11.0892 11.9448 10.3995 13.4276 9.65572 14.9985C11.0622 13.1432 12.5362 11.3219 14.0779 9.53436C15.038 8.41038 16.1672 7.17135 17.4654 5.81721C18.7773 4.463 20.0823 3.25777 21.3805 2.20152C22.6787 1.13175 23.8012 0.481747 24.7478 0.251517C25.14 0.183852 25.4578 0.190611 25.7013 0.271861C25.9582 0.339591 26.1543 0.434361 26.2895 0.556236C26.5464 0.745841 26.7696 1.03698 26.9589 1.42971C27.1482 1.82237 27.2159 2.33022 27.1618 2.95311C26.9859 4.06351 26.5058 5.16038 25.7215 6.24374C24.9507 7.31351 24.2272 8.18698 23.551 8.86402C22.6314 9.81198 21.6577 10.6786 20.6299 11.464C20.9545 11.4505 21.2859 11.4573 21.6239 11.4844C23.6659 11.6333 25.3767 12.2156 26.7561 13.2312C28.744 14.7615 29.4878 16.8265 28.9874 19.4265C28.7034 20.7536 28.2369 22.0401 27.5877 23.286C30.2383 22.961 32.5373 23.0286 34.4847 23.489ZM20.4271 30.2328C22.1987 28.5401 23.6727 26.8406 24.8492 25.1344C21.7794 25.7708 18.5338 26.8203 15.1124 28.2828C11.7315 29.7589 8.85781 31.3161 6.49124 32.9547C4.13817 34.6067 2.67088 36.076 2.08938 37.3625C1.77834 38.0937 1.94062 38.649 2.57622 39.0281C3.75276 39.6781 5.84212 39.3735 8.84431 38.114C12.8608 36.3265 16.7217 33.6995 20.4271 30.2328ZM50.5505 21.7422C50.6722 21.8911 50.7262 22.0604 50.7127 22.25C50.6992 22.426 50.6248 22.5817 50.4896 22.7172C49.1913 23.8276 47.8458 24.613 46.4529 25.0735C45.0735 25.5339 43.7752 25.7573 42.5581 25.7437C41.3545 25.7302 40.3606 25.5812 39.5763 25.2969C39.4004 25.2291 39.2381 25.1615 39.0894 25.0937C38.5755 25.6219 38.021 26.062 37.426 26.414C36.831 26.7661 36.2359 26.949 35.6409 26.9625C35.3705 26.9625 35.1 26.9083 34.8295 26.8C33.7612 26.2854 33.5854 25.087 34.3021 23.2047C34.5996 22.4599 35.0188 21.7354 35.5597 21.0312C36.1142 20.3135 36.7363 19.7651 37.426 19.386C38.1157 19.0067 38.8257 18.939 39.5559 19.1828C39.7453 19.264 39.8737 19.3927 39.9413 19.5687C40.0225 19.7312 40.0293 19.9005 39.9616 20.0765C39.8805 20.2661 39.7588 20.4015 39.5965 20.4828C39.4342 20.5505 39.2584 20.5505 39.0691 20.4828C38.5011 20.3203 37.8791 20.5844 37.2029 21.275C36.5267 21.9521 35.9858 22.7714 35.5801 23.7328C35.3637 24.3015 35.2555 24.7349 35.2555 25.0328C35.2555 25.3307 35.2961 25.4932 35.3772 25.5203C35.7964 25.6828 36.4118 25.4729 37.2232 24.8906C37.4395 24.7281 37.6491 24.5521 37.852 24.3625C37.3651 23.9562 37.0947 23.4958 37.0406 22.9812C36.9865 22.1823 37.3651 21.5187 38.1766 20.9906C39.0285 20.5031 39.7926 20.4557 40.4688 20.8485C40.604 20.9161 40.7257 21.038 40.8339 21.214C40.9421 21.3901 40.9894 21.6339 40.9759 21.9453C40.9624 22.2567 40.8339 22.6495 40.5904 23.1235C40.4417 23.3942 40.2524 23.6854 40.0225 23.9969C40.036 23.9969 40.0428 23.9969 40.0428 23.9969C40.7054 24.2406 41.5641 24.3625 42.6189 24.3625C43.6738 24.3625 44.8097 24.1594 46.0268 23.7531C47.244 23.3469 48.4273 22.6562 49.5768 21.6812C49.7256 21.5594 49.8878 21.5052 50.0636 21.5187C50.253 21.5323 50.4152 21.6067 50.5505 21.7422ZM38.7851 23.3469C39.2314 22.751 39.4951 22.2906 39.5763 21.9656C39.5627 21.9656 39.5559 21.9656 39.5559 21.9656C39.3802 21.9656 39.1637 22.0333 38.9068 22.1687C38.7716 22.25 38.6566 22.3515 38.5619 22.4735C38.4673 22.5953 38.42 22.7172 38.42 22.839C38.4335 22.9745 38.5552 23.1437 38.7851 23.3469ZM64.9123 21.7422C65.0343 21.8911 65.0882 22.0604 65.0746 22.25C65.061 22.426 64.9869 22.5817 64.8514 22.7172C63.5532 23.8276 62.2076 24.613 60.8147 25.0735C59.4353 25.5339 58.1371 25.7573 56.92 25.7437C55.7164 25.7302 54.7224 25.5812 53.9381 25.2969C53.7623 25.2291 53.6 25.1615 53.4513 25.0937C52.9373 25.6219 52.3829 26.062 51.7878 26.414C51.1928 26.7661 50.5978 26.949 50.0027 26.9625C49.7323 26.9625 49.4618 26.9083 49.1913 26.8C48.123 26.2854 47.9472 25.087 48.664 23.2047C48.9615 22.4599 49.3807 21.7354 49.9216 21.0312C50.4761 20.3135 51.0982 19.7651 51.7878 19.386C52.4776 19.0067 53.1875 18.939 53.9178 19.1828C54.1071 19.264 54.2356 19.3927 54.3032 19.5687C54.3843 19.7312 54.3911 19.9005 54.3235 20.0765C54.2423 20.2661 54.1206 20.4015 53.9584 20.4828C53.7961 20.5505 53.6203 20.5505 53.4309 20.4828C52.863 20.3203 52.2409 20.5844 51.5647 21.275C50.8885 21.9521 50.3476 22.7714 49.9419 23.7328C49.7256 24.3015 49.6173 24.7349 49.6173 25.0328C49.6173 25.3307 49.6579 25.4932 49.7391 25.5203C50.1583 25.6828 50.7736 25.4729 51.585 24.8906C51.8014 24.7281 52.011 24.5521 52.2138 24.3625C51.727 23.9562 51.4565 23.4958 51.4024 22.9812C51.3484 22.1823 51.727 21.5187 52.5384 20.9906C53.3904 20.5031 54.1545 20.4557 54.8306 20.8485C54.9659 20.9161 55.0876 21.038 55.1957 21.214C55.3039 21.3901 55.3512 21.6339 55.3377 21.9453C55.3242 22.2567 55.1957 22.6495 54.9523 23.1235C54.8036 23.3942 54.6142 23.6854 54.3843 23.9969C54.3979 23.9969 54.4046 23.9969 54.4046 23.9969C55.0672 24.2406 55.926 24.3625 56.9808 24.3625C58.0356 24.3625 59.1716 24.1594 60.3887 23.7531C61.6058 23.3469 62.7891 22.6562 63.9386 21.6812C64.0874 21.5594 64.2497 21.5052 64.4255 21.5187C64.6148 21.5323 64.7771 21.6067 64.9123 21.7422ZM53.1469 23.3469C53.5932 22.751 53.857 22.2906 53.9381 21.9656C53.9245 21.9656 53.9178 21.9656 53.9178 21.9656C53.742 21.9656 53.5256 22.0333 53.2687 22.1687C53.1334 22.25 53.0185 22.3515 52.9238 22.4735C52.8291 22.5953 52.7818 22.7172 52.7818 22.839C52.7953 22.9745 52.917 23.1437 53.1469 23.3469ZM81.1404 21.8031C81.2488 21.9656 81.289 22.1349 81.2624 22.311C81.2351 22.487 81.1469 22.636 80.9982 22.7578C79.5241 23.8276 77.9895 24.6942 76.394 25.3578C74.7978 26.0214 73.3574 26.5291 72.0728 26.8812C68.8817 27.7073 66.65 28.0729 65.379 27.9781C65.1083 27.951 64.9123 27.8156 64.7906 27.5719C64.6959 27.3146 64.7298 27.0776 64.8921 26.861C65.4465 26.1703 66.1158 25.3646 66.8999 24.4437C64.2497 27.3416 62.0251 29.9755 60.2264 32.3453C60.0777 32.5349 59.8951 32.6297 59.6787 32.6297C59.557 32.6297 59.4421 32.5958 59.3339 32.5281C59.1716 32.4333 59.0702 32.3047 59.0296 32.1422C58.9756 31.9797 58.9823 31.8172 59.0499 31.6547C61.5112 26.2245 64.3105 20.862 67.4478 15.5672C68.4351 13.9286 69.2874 12.5812 70.004 11.525C70.7206 10.4552 71.3224 9.62913 71.8092 9.04686C72.2961 8.45101 72.6881 8.01772 72.9861 7.74686C73.297 7.47601 73.5404 7.31351 73.7157 7.25936C73.8916 7.19163 74.0201 7.15777 74.1013 7.15777C74.4933 7.14425 74.7978 7.29999 75.0139 7.62499C75.1087 7.78749 75.136 7.96351 75.0957 8.15311C75.0548 8.32913 74.9536 8.47135 74.7913 8.57971C74.5615 8.70152 74.3311 8.70834 74.1013 8.59999C73.8176 8.77601 73.2159 9.47346 72.2961 10.6922C71.3763 11.8974 70.0917 13.861 68.4422 16.5828C66.4949 19.887 64.6148 23.3469 62.8027 26.9625C64.3578 25.1479 65.9262 23.4146 67.5088 21.7625C69.0914 20.1104 70.4435 18.8375 71.5658 17.9437C71.782 17.7812 72.0189 17.7541 72.2759 17.8625C72.533 17.9844 72.6953 18.1807 72.7628 18.4515C72.8705 18.8307 72.5934 19.4875 71.9306 20.4219C71.2815 21.3562 70.0579 22.8729 68.2592 24.9719C67.7996 25.5135 67.3601 26.0281 66.9408 26.5156C68.55 26.3666 70.6058 25.9062 73.1075 25.1344C75.6228 24.3625 77.9824 23.2047 80.1868 21.661C80.3355 21.539 80.4977 21.4916 80.6737 21.5187C80.8632 21.5458 81.0183 21.6406 81.1404 21.8031Z" fill="black"/>
<path d="M93.0881 15.6812C93.0797 15.4182 92.8596 15.2117 92.5974 15.2201C92.5909 15.2203 92.4383 15.2254 92.1878 15.2492C91.9262 15.2739 91.7347 15.5064 91.7593 15.7683C91.784 16.0304 92.0164 16.2226 92.278 16.1977C92.4935 16.1773 92.624 16.1726 92.6279 16.1726C92.8901 16.1639 93.0965 15.944 93.0881 15.6812Z" fill="#050402"/>
<path d="M86.1366 37.3186C85.9075 37.4101 85.6692 37.4993 85.4291 37.5835C85.1811 37.6705 85.0506 37.9422 85.1376 38.1906C85.2239 38.4383 85.4953 38.57 85.7439 38.4828C85.9964 38.3941 86.2476 38.3003 86.4891 38.2037C86.7332 38.1063 86.852 37.8292 86.7552 37.5848C86.6579 37.3404 86.3813 37.2212 86.1366 37.3186Z" fill="#050402"/>
<path d="M89.6439 35.8819C89.4868 35.6706 89.1888 35.6265 88.9779 35.7833C88.7864 35.9256 88.5812 36.0662 88.3677 36.2012C88.145 36.3416 88.0788 36.6358 88.219 36.8583C88.3592 37.0805 88.6526 37.1476 88.8753 37.007C89.109 36.8592 89.3342 36.705 89.5452 36.5484C89.7562 36.3915 89.8003 36.0932 89.6439 35.8819Z" fill="#050402"/>
<path d="M91.4432 34.5661C91.525 34.4361 91.6029 34.3025 91.673 34.169C91.7334 34.0547 91.7905 33.9373 91.8424 33.8202C91.9482 33.5795 91.8392 33.2977 91.599 33.1918C91.3588 33.0856 91.0777 33.1945 90.9719 33.4351C90.9291 33.532 90.8817 33.6291 90.8317 33.7239C90.7733 33.8353 90.7084 33.947 90.6396 34.0558C90.4987 34.278 90.5643 34.5724 90.7863 34.7133C91.0076 34.854 91.3023 34.7887 91.4432 34.5661Z" fill="#050402"/>
<path d="M92.1339 30.2303C92.0755 29.9736 91.821 29.8129 91.5646 29.8711C91.3082 29.9292 91.1479 30.1845 91.2056 30.441C91.2602 30.6798 91.2991 30.9174 91.3212 31.1474C91.3471 31.4093 91.5802 31.6006 91.8418 31.5748C92.1034 31.549 92.2942 31.3158 92.2682 31.0539C92.2416 30.7846 92.1968 30.5075 92.1339 30.2303Z" fill="#050402"/>
<path d="M91.1258 27.7109C90.9985 27.4843 90.859 27.2527 90.7116 27.0224C90.5701 26.8009 90.2754 26.7365 90.0541 26.8785C89.8334 27.0206 89.7685 27.3153 89.9106 27.5368C90.0482 27.7515 90.1781 27.9673 90.2962 28.1777C90.4241 28.4056 90.7136 28.4894 90.944 28.3596C91.1732 28.2307 91.2543 27.9403 91.1258 27.7109Z" fill="#050402"/>
<path d="M88.761 24.2827C88.6176 24.0621 88.3229 23.9999 88.1028 24.1435C87.8828 24.287 87.8204 24.5822 87.9639 24.8027C88.1035 25.0176 88.2534 25.2386 88.4092 25.4595C88.5598 25.673 88.8571 25.7263 89.0726 25.5734C89.2868 25.4215 89.3381 25.1241 89.1862 24.9093C89.0369 24.6982 88.8941 24.4874 88.761 24.2827Z" fill="#050402"/>
<path d="M86.7079 22.4403C86.8046 22.6843 87.0811 22.8043 87.3258 22.7067C87.5699 22.6094 87.6887 22.3323 87.592 22.0878C87.4985 21.8525 87.418 21.6204 87.3531 21.398C87.2797 21.1455 87.0155 21.0003 86.7637 21.0738C86.5112 21.1474 86.3664 21.4119 86.4398 21.6645C86.5125 21.916 86.6027 22.1771 86.7079 22.4403Z" fill="#050402"/>
<path d="M87.3297 17.8528C87.1006 17.7248 86.8104 17.8046 86.6812 18.0338C86.6643 18.0634 86.6481 18.0933 86.6325 18.1232C86.5112 18.3537 86.4131 18.5986 86.3411 18.8513C86.2684 19.1052 86.4157 19.3684 86.6676 19.4403C86.9201 19.5125 87.1837 19.366 87.2557 19.1129C87.3096 18.9236 87.3836 18.7405 87.4745 18.5679C87.4861 18.5457 87.4978 18.5236 87.5102 18.5019C87.6393 18.2726 87.5582 17.9821 87.3297 17.8528Z" fill="#050402"/>
<path d="M88.576 16.7914C88.6922 17.0274 88.9772 17.1244 89.2128 17.008C89.4199 16.9058 89.6445 16.8104 89.8788 16.7244C90.1255 16.634 90.2527 16.3605 90.1625 16.1134C90.0723 15.8661 89.799 15.7391 89.5523 15.8295C89.2855 15.9271 89.0298 16.0361 88.7922 16.1534C88.5566 16.2697 88.4598 16.5554 88.576 16.7914Z" fill="#050402"/>
<path d="M82.9916 38.265C82.7683 38.3115 82.6391 38.333 82.6378 38.3333C82.3782 38.376 82.2029 38.6211 82.2458 38.8807C82.2886 39.1412 82.5333 39.3161 82.7923 39.2735C82.7982 39.2725 82.9403 39.2489 83.1857 39.1979C83.4427 39.1444 83.6076 38.8921 83.5544 38.6345C83.5012 38.377 83.2493 38.2115 82.9916 38.265Z" fill="#050402"/>
<path d="M82.865 42.5533L91.0544 46.8855C91.7567 47.2572 92.6162 47.1776 93.2977 46.6777C101.251 40.838 104.109 33.3007 97.0782 26.2554C94.8147 23.9873 92.2832 20.8985 93.0757 19.0636C93.7093 17.597 96.4512 16.9278 101.225 17.0748C101.978 17.0979 102.264 16.0591 101.604 15.71C100.713 15.2383 99.4865 14.5898 98.5543 14.0965C98.0266 13.8174 97.4515 13.6662 96.8445 13.6471C95.3671 13.6006 93.3847 13.6009 91.3699 13.7875C85.5998 13.9335 82.0426 15.1501 80.7976 17.4037C79.9459 18.9464 80.216 20.9144 81.6012 23.2531C82.8566 25.3716 83.124 27.1449 82.397 28.5236C80.4587 32.2005 71.7482 32.7586 68.8862 32.9419C67.8547 33.0081 67.5204 34.4361 68.4156 34.9095L80.9034 41.5156C81.1358 41.6385 81.4233 41.5495 81.546 41.317C81.6687 41.0845 81.5798 40.7965 81.3474 40.6737L72.0572 35.7591C81.7031 34.8336 89.2232 31.2251 84.2801 22.8793C81.1981 17.6768 84.7715 15.4979 90.7947 14.8039C92.9816 14.5537 95.2036 14.5481 96.8147 14.5988C97.2756 14.6133 97.7118 14.7276 98.1103 14.9384L99.2262 15.5287C96.3636 15.5538 91.967 15.968 90.7668 18.5697C90.3066 19.5677 90.3715 20.7768 90.9583 22.1636C91.5789 23.6291 92.8109 25.3474 94.62 27.2707C97.7631 30.6122 98.7114 33.8962 97.4391 37.0315C97.3398 37.275 97.4567 37.5526 97.7001 37.6518C97.9435 37.7508 98.2207 37.6336 98.32 37.39C99.7448 33.879 98.7329 30.2546 95.312 26.6178C92.1475 23.2531 90.8739 20.6082 91.6301 18.9689C91.9106 18.3607 92.4377 17.9281 93.0251 17.6091C90.1553 20.0048 93.7573 24.2746 96.4057 26.9282C99.0788 29.6071 100.323 32.4134 100.104 35.2694C99.7351 40.0909 95.3288 44.0055 92.735 45.9097C92.3507 46.1922 91.8762 46.2435 91.4984 46.0434L90.1372 45.3234C92.757 43.8819 95.4963 41.8777 97.2003 39.4299C97.3502 39.2142 97.297 38.9175 97.0821 38.7672C96.8666 38.6175 96.57 38.6698 96.42 38.8855C95.5619 40.1186 93.4788 42.5076 89.1226 44.7867L83.309 41.7114C83.0773 41.5886 82.7891 41.6775 82.6671 41.91C82.5444 42.1425 82.6327 42.4306 82.865 42.5533ZM70.4902 34.9302L68.8596 34.0677C68.855 34.0651 68.8531 34.0634 68.8531 34.0634V34.0634C68.8466 34.0535 68.8414 34.0073 68.8667 33.9561C68.8966 33.8955 68.9342 33.893 68.9466 33.8922C74.1428 33.5592 81.2773 32.6867 83.2383 28.9681C84.1302 27.2766 83.8543 25.1903 82.4191 22.7673C80.5925 19.6832 80.7749 17.3233 84.0646 15.9453C81.572 17.7811 81.8011 20.444 83.3357 23.1476C83.4467 23.343 83.4837 23.3984 83.5992 23.6019C88.1385 31.5898 79.6233 34.3327 70.4902 34.9302Z" fill="#050402"/>
</svg>
