<svg width="35" height="35" viewBox="0 0 35 35" fill="none" xmlns="http://www.w3.org/2000/svg">
<g clip-path="url(#clip0_8_528)">
<path d="M33.9053 16.1686H20.0515C19.4477 16.1686 18.9578 15.6857 18.9578 15.0908C18.9578 14.4958 19.4477 14.0129 20.0515 14.0129H33.9053C34.509 14.0129 34.999 14.4958 34.999 15.0908C34.999 15.6857 34.509 16.1686 33.9053 16.1686Z" fill="#FF0742"/>
<path d="M28.4366 21.5578C28.1565 21.5578 27.8766 21.4528 27.6635 21.2417C27.2363 20.8204 27.2363 20.1378 27.6635 19.7168L32.3594 15.0894L27.6635 10.4618C27.2363 10.0407 27.2363 9.35815 27.6635 8.93712C28.091 8.51583 28.7837 8.51583 29.2109 8.93712L34.6795 14.3263C35.1067 14.7473 35.1067 15.4299 34.6795 15.851L29.2109 21.2401C28.9965 21.4528 28.7167 21.5578 28.4366 21.5578V21.5578Z" fill="#FF0742"/>
<path d="M11.6664 34.4918C11.3542 34.4918 11.0581 34.4486 10.7623 34.3581L1.9861 31.4767C0.791983 31.0657 0 29.9691 0 28.7434V2.87535C0 1.29018 1.30813 0.0010376 2.91666 0.0010376C3.22854 0.0010376 3.52467 0.0441932 3.8208 0.134715L12.5967 3.01614C13.7911 3.42717 14.5828 4.52368 14.5828 5.74941V31.6175C14.5828 33.2026 13.2749 34.4918 11.6664 34.4918ZM2.91666 2.15671C2.5156 2.15671 2.18743 2.48011 2.18743 2.87535V28.7434C2.18743 29.0494 2.39597 29.3339 2.69344 29.436L11.4285 32.3045C11.4912 32.3245 11.5729 32.3361 11.6664 32.3361C12.0675 32.3361 12.3954 32.0127 12.3954 31.6175V5.74941C12.3954 5.44337 12.1868 5.15891 11.8894 5.05681L3.15431 2.18829C3.09156 2.16829 3.00985 2.15671 2.91666 2.15671V2.15671Z" fill="#FF0742"/>
<path d="M22.2387 11.4981C21.635 11.4981 21.145 11.0152 21.145 10.4203V3.95325C21.145 2.96304 20.3271 2.15677 19.3223 2.15677H2.91659C2.31286 2.15677 1.82288 1.6739 1.82288 1.07893C1.82288 0.483967 2.31286 0.00109863 2.91659 0.00109863H19.3223C21.5346 0.00109863 23.3324 1.77311 23.3324 3.95325V10.4203C23.3324 11.0152 22.8425 11.4981 22.2387 11.4981Z" fill="#FF0742"/>
<path d="M19.3224 30.1805H13.489C12.8853 30.1805 12.3953 29.6976 12.3953 29.1026C12.3953 28.5077 12.8853 28.0248 13.489 28.0248H19.3224C20.3272 28.0248 21.1451 27.2185 21.1451 26.2283V19.7613C21.1451 19.1663 21.635 18.6835 22.2388 18.6835C22.8425 18.6835 23.3325 19.1663 23.3325 19.7613V26.2283C23.3325 28.4085 21.5346 30.1805 19.3224 30.1805V30.1805Z" fill="#FF0742"/>
</g>
<defs>
<clipPath id="clip0_8_528">
<rect width="35" height="34.4918" fill="white"/>
</clipPath>
</defs>
</svg>
