<svg width="31" height="28" viewBox="0 0 31 28" fill="none" xmlns="http://www.w3.org/2000/svg">
<path d="M6.53333 12.185C8.93333 16.43 12.8 19.895 17.5167 22.07L21.1833 18.77C21.6333 18.365 22.3 18.23 22.8833 18.41C24.75 18.965 26.7667 19.265 28.8333 19.265C29.75 19.265 30.5 19.94 30.5 20.765V26C30.5 26.825 29.75 27.5 28.8333 27.5C13.1833 27.5 0.5 16.085 0.5 2C0.5 1.175 1.25 0.5 2.16667 0.5H8C8.91667 0.5 9.66667 1.175 9.66667 2C9.66667 3.875 10 5.675 10.6167 7.355C10.8 7.88 10.6667 8.465 10.2 8.885L6.53333 12.185Z" fill="#8A8C90"/>
</svg>
