<svg width="37" height="37" viewBox="0 0 37 37" fill="none" xmlns="http://www.w3.org/2000/svg">
<path d="M11 28.2222V24.3333V28.2222ZM18.5 28.2222V20.4444V28.2222ZM26 28.2222V16.5556V28.2222ZM31 36H6C4.67392 36 3.40215 35.5903 2.46447 34.861C1.52678 34.1317 1 33.1425 1 32.1111V4.88889C1 3.85749 1.52678 2.86834 2.46447 2.13903C3.40215 1.40972 4.67392 1 6 1H19.965C20.628 1.00011 21.2638 1.20504 21.7325 1.56972L35.2675 12.0969C35.7364 12.4615 35.9999 12.956 36 13.4717V32.1111C36 33.1425 35.4732 34.1317 34.5355 34.861C33.5979 35.5903 32.3261 36 31 36Z" stroke="black" stroke-width="2" stroke-linecap="round" stroke-linejoin="round"/>
</svg>
