<svg width="36" height="40" viewBox="0 0 36 40" fill="none" xmlns="http://www.w3.org/2000/svg">
<path d="M17.5166 19.2682C20.2928 19.2682 22.6964 18.3188 24.661 16.4456C26.6249 14.5728 27.6209 12.2812 27.6209 9.63379C27.6209 6.9873 26.6252 4.69543 24.6607 2.82196C22.6961 0.949402 20.2925 0 17.5166 0C14.74 0 12.3367 0.949402 10.3725 2.82227C8.40826 4.69513 7.41223 6.987 7.41223 9.63379C7.41223 12.2812 8.40826 14.5731 10.3725 16.4459C12.3373 18.3185 14.741 19.2682 17.5166 19.2682V19.2682ZM12.1111 4.47968C13.6182 3.0426 15.3862 2.34406 17.5166 2.34406C19.6466 2.34406 21.4149 3.0426 22.9224 4.47968C24.4296 5.91705 25.1625 7.60315 25.1625 9.63379C25.1625 11.665 24.4296 13.3508 22.9224 14.7882C21.4149 16.2256 19.6466 16.9241 17.5166 16.9241C15.3869 16.9241 13.6189 16.2253 12.1111 14.7882C10.6036 13.3511 9.87062 11.665 9.87062 9.63379C9.87062 7.60315 10.6036 5.91705 12.1111 4.47968Z" fill="#393939"/>
<path d="M35.1964 30.7582C35.1398 29.9788 35.0252 29.1285 34.8565 28.2307C34.6863 27.3262 34.467 26.4711 34.2046 25.6895C33.9332 24.8817 33.5648 24.084 33.1087 23.3195C32.6359 22.5261 32.0803 21.8351 31.4568 21.2666C30.8049 20.6718 30.0066 20.1936 29.0836 19.8448C28.1637 19.4978 27.1443 19.322 26.0539 19.322C25.6256 19.322 25.2115 19.4896 24.4116 19.9861C23.9194 20.2922 23.3436 20.6462 22.7009 21.0377C22.1514 21.3716 21.4069 21.6844 20.4874 21.9676C19.5902 22.2444 18.6793 22.3848 17.78 22.3848C16.8812 22.3848 15.9703 22.2444 15.0726 21.9676C14.154 21.6847 13.4092 21.3719 12.8606 21.038C12.224 20.6501 11.6479 20.2961 11.1483 19.9858C10.3491 19.4893 9.93494 19.3217 9.5067 19.3217C8.41593 19.3217 7.39686 19.4978 6.47732 19.8451C5.5549 20.1933 4.75635 20.6715 4.10374 21.2669C3.48026 21.8358 2.92464 22.5264 2.45223 23.3195C1.99678 24.084 1.62807 24.8814 1.35666 25.6898C1.09453 26.4714 0.875284 27.3262 0.705011 28.2307C0.536019 29.1273 0.421757 29.9778 0.365106 30.7591C0.309415 31.5229 0.28125 32.3179 0.28125 33.1212C0.28125 35.2092 0.977384 36.8995 2.35013 38.1462C3.70591 39.3763 5.49953 40.0001 7.68139 40.0001H27.8811C30.0623 40.0001 31.856 39.3763 33.2121 38.1462C34.5851 36.9005 35.2813 35.2095 35.2813 33.1208C35.2809 32.3149 35.2524 31.5199 35.1964 30.7582V30.7582ZM31.517 36.4479C30.6212 37.2609 29.4318 37.6561 27.8808 37.6561H7.68139C6.13005 37.6561 4.9407 37.2609 4.04517 36.4482C3.1666 35.6508 2.73964 34.5622 2.73964 33.1212C2.73964 32.3716 2.76557 31.6316 2.81742 30.9211C2.86799 30.2241 2.97137 29.4584 3.12468 28.6448C3.27607 27.8413 3.46874 27.0872 3.69791 26.4045C3.91779 25.7499 4.21769 25.1017 4.5896 24.4774C4.94455 23.8823 5.35294 23.3717 5.80359 22.9603C6.22511 22.5755 6.75641 22.2606 7.38245 22.0244C7.96144 21.8058 8.61213 21.6862 9.31851 21.6682C9.4046 21.7119 9.55791 21.7952 9.80628 21.9496C10.3117 22.2636 10.8942 22.6219 11.5381 23.014C12.264 23.4553 13.1993 23.8539 14.3166 24.1978C15.4589 24.55 16.6239 24.7288 17.7803 24.7288C18.9367 24.7288 20.102 24.55 21.2437 24.1981C22.362 23.8536 23.2969 23.4553 24.0237 23.0134C24.6827 22.6118 25.2489 22.2639 25.7543 21.9496C26.0027 21.7955 26.156 21.7119 26.2421 21.6682C26.9488 21.6862 27.5995 21.8058 28.1788 22.0244C28.8045 22.2606 29.3358 22.5758 29.7573 22.9603C30.208 23.3714 30.6164 23.882 30.9713 24.4777C31.3435 25.1017 31.6438 25.7502 31.8633 26.4042C32.0928 27.0878 32.2858 27.8416 32.4369 28.6445C32.5899 29.4597 32.6936 30.2256 32.7441 30.9214V30.9221C32.7963 31.6298 32.8225 32.3695 32.8229 33.1212C32.8225 34.5625 32.3956 35.6508 31.517 36.4479V36.4479Z" fill="#393939"/>
</svg>
